<svg width="693" height="555" viewBox="0 0 693 555" fill="none" xmlns="http://www.w3.org/2000/svg">
<path d="M287.161 203.212C287.286 203.207 287.286 203.207 287.286 203.205L287.285 203.199L287.285 203.175L287.281 203.077L287.267 202.693C287.255 202.354 287.238 201.85 287.215 201.191C287.171 199.875 287.109 197.94 287.037 195.47C286.894 190.53 286.711 183.446 286.554 174.872C286.24 157.724 286.031 134.616 286.449 110.777C286.867 86.9371 287.913 62.3683 290.108 42.2971C291.206 32.2612 292.591 23.3529 294.327 16.2236C296.029 9.23826 298.064 3.97986 300.484 1.03767C315.678 60.765 354.426 90.4649 400.263 125.598C407.619 131.236 415.158 137.015 422.811 143.079C478.213 186.983 539.674 245.933 581.491 375.542L544.712 522.659L516.466 527.644C509.827 499.831 486.709 459.223 417.798 437.456C388.773 428.283 351.082 422.259 303.891 422.259C280.157 422.259 257.595 425.071 235.334 430.293L235.363 430.415L235.334 430.293C224.421 432.871 213.208 436.151 202.664 439.699C115.321 469.014 41.9693 530.579 -6.1573 585.089L-67.5069 592.908L-140.759 554.617C-140.561 554.582 -140.284 554.531 -139.932 554.462C-139.153 554.31 -138.009 554.072 -136.545 553.727C-133.617 553.037 -129.411 551.918 -124.296 550.205C-114.067 546.778 -100.202 540.97 -85.6561 531.447C-56.5626 512.4 -24.7508 478.493 -13.8688 419.06L-13.8548 418.984L-13.9173 418.937L-79.7474 370.133L-92.385 347.24C-88.0507 348.143 -84.0564 349.014 -80.3284 349.826C-62.4859 353.716 -50.7431 356.276 -37.007 354.674C-20.3427 352.73 -0.748795 344.663 36.2563 325.458C71.522 308.737 104.129 303.72 127.918 302.884C139.813 302.466 149.504 303.093 156.22 303.825C159.578 304.191 162.192 304.582 163.966 304.883C164.853 305.033 165.53 305.16 165.985 305.25C166.213 305.294 166.385 305.33 166.5 305.354C166.558 305.366 166.601 305.375 166.63 305.382L166.662 305.389L166.67 305.391L166.672 305.391C166.672 305.391 166.673 305.391 166.7 305.269M287.161 203.212C287.122 203.331 287.121 203.33 287.121 203.33L287.119 203.33L287.112 203.327L287.084 203.318L286.97 203.281L286.523 203.134C286.129 203.004 285.545 202.813 284.787 202.566C283.27 202.071 281.055 201.352 278.264 200.454C272.68 198.658 264.788 196.147 255.553 193.289C237.083 187.571 213.244 180.461 191.764 174.891C180.8 172.05 170.4 169.59 159.739 167.068C128.085 159.578 94.1207 151.542 36.1794 131.395C35.5305 131.398 35.0626 131.563 34.7468 131.86C34.4276 132.16 34.245 132.614 34.2064 133.232C34.1288 134.474 34.6376 136.319 35.6777 138.696C37.7541 143.442 41.9112 150.231 47.5182 158.386C58.7299 174.694 75.7194 196.441 93.3909 218.191C111.062 239.939 129.413 261.689 143.346 278.001C150.312 286.156 156.174 292.953 160.295 297.711C162.355 300.09 163.98 301.959 165.09 303.233C165.644 303.87 166.07 304.359 166.358 304.688L166.684 305.061L166.766 305.155L166.787 305.179L166.792 305.185C166.793 305.186 166.794 305.187 166.7 305.269M287.161 203.212L287.286 203.207L287.292 203.387L287.122 203.331L287.161 203.212ZM166.7 305.269L166.673 305.391L167.046 305.474L166.794 305.187L166.7 305.269Z" fill="white" stroke="#141414" stroke-width="0.25"/>
<path d="M545.796 412.844L545.918 412.814L545.796 412.844C546.195 414.454 547.453 415.368 548.767 415.49C550.083 415.612 551.45 414.939 552.057 413.395C564.934 380.584 604.185 263.008 561.752 138.186C561.8 138.206 561.854 138.23 561.915 138.256C562.192 138.377 562.602 138.559 563.137 138.807C564.207 139.302 565.774 140.057 567.764 141.099C571.743 143.182 577.41 146.408 584.159 150.98C597.657 160.124 615.482 174.652 632.785 196.184C667.388 239.244 699.91 310.327 691.547 422.408C688.37 465.004 677.159 494.448 661.787 514.521C646.416 534.593 626.876 545.306 607.019 550.428C567.384 560.652 526.492 548.6 515.019 544.229C514.338 532.01 510.822 512.061 497.113 491.805C483.383 471.517 459.434 450.929 417.891 437.486C418.347 428.79 419.584 386.114 403.851 337.696C388.063 289.111 355.183 234.737 287.275 203.127L287.265 203.062C287.253 202.974 287.234 202.843 287.209 202.67C287.16 202.325 287.087 201.812 286.994 201.142C286.808 199.801 286.54 197.833 286.213 195.321C285.56 190.296 284.671 183.094 283.73 174.39C281.848 156.982 279.757 133.562 278.92 109.516C278.084 85.468 278.503 60.7995 281.638 40.8912C283.205 30.9369 285.451 22.1785 288.556 15.2846C291.611 8.50025 295.492 3.53534 300.362 1.00432C300.337 1.11713 300.306 1.26576 300.271 1.45012C300.181 1.92146 300.066 2.62637 299.961 3.56361C299.751 5.43811 299.584 8.2418 299.751 11.9647C300.087 19.4106 301.762 30.5323 307.12 45.2499L307.238 45.2071L307.12 45.2501C315.358 67.7874 329.491 98.8259 377.427 138.059L377.43 138.061C461.725 202.921 520.906 311.777 545.796 412.844ZM-68.7573 608.606L-68.768 608.73L-68.7574 608.606C-83.452 607.352 -98.9481 603.675 -112.055 595.391C-125.131 587.126 -135.835 574.272 -140.992 554.647L-140.973 554.643C-140.879 554.619 -140.739 554.584 -140.555 554.537C-140.188 554.443 -139.646 554.301 -138.946 554.11C-137.546 553.729 -135.517 553.154 -132.994 552.375C-127.95 550.819 -120.935 548.45 -113.053 545.202C-97.2906 538.708 -78.0489 528.696 -64.1618 514.624C-27.2278 477.825 34.6252 467.684 94.7307 481.03L95.0422 481.099L94.8606 480.837L94.8454 480.847C94.8604 480.837 94.8603 480.836 94.8602 480.836L94.8591 480.835L94.8548 480.828L94.838 480.805C94.8232 480.783 94.801 480.752 94.7714 480.711C94.7124 480.628 94.624 480.505 94.5064 480.345C94.2712 480.026 93.9191 479.557 93.451 478.962C92.5147 477.77 91.1142 476.068 89.2559 474.027C85.5395 469.944 79.9915 464.501 72.6642 459.058C58.0094 448.171 36.2339 437.283 7.75818 437.283C-48.7835 437.283 -88.7761 390.94 -92.4509 347.676C-92.4461 347.685 -92.4412 347.694 -92.4362 347.703C-92.233 348.082 -91.9249 348.634 -91.5051 349.327C-90.6655 350.713 -89.3786 352.663 -87.5882 354.922C-84.0074 359.441 -78.412 365.197 -70.3518 370.153C-54.2266 380.066 -28.2554 386.759 11.143 373.95C78.0248 352.214 125.884 368.701 157.024 390.614C172.597 401.572 183.99 413.889 191.49 423.467C195.24 428.256 198.017 432.359 199.856 435.265C200.775 436.717 201.46 437.871 201.915 438.661C202.059 438.912 202.181 439.127 202.279 439.302C202.335 439.403 202.384 439.49 202.425 439.565C202.466 439.639 202.499 439.699 202.525 439.747C127.874 465.637 65.4674 516.347 18.8774 565.111C-4.84184 589.967 -34.5532 611.545 -68.7573 608.606ZM235.442 430.268C235.421 430.213 235.393 430.135 235.356 430.037C235.274 429.816 235.151 429.487 234.988 429.057C234.662 428.197 234.177 426.932 233.54 425.309C232.266 422.062 230.384 417.384 227.949 411.659C223.079 400.21 216.001 384.57 207.165 367.813C189.497 334.305 164.79 296.299 136.652 278.394C109.056 260.833 81.4581 237.417 59.9241 214.211C49.1572 202.608 39.9079 191.059 32.9329 180.322C25.9568 169.583 21.2608 159.665 19.5923 151.322C16.2488 134.605 16.2489 120.396 17.0846 110.367C17.5025 105.352 18.1293 101.383 18.6513 98.6686C18.9124 97.3112 19.1472 96.2674 19.3167 95.5634C19.3985 95.2236 19.4651 94.9629 19.5121 94.7843C19.5652 94.8733 19.6327 94.9845 19.7153 95.117C19.9571 95.505 20.3285 96.0764 20.8478 96.812C21.8865 98.2832 23.5169 100.411 25.8861 103.042C30.6245 108.304 38.3177 115.578 50.142 123.635C73.79 139.749 113.959 158.995 180.057 171.545C231.878 185.322 274.843 226.165 305.115 274.81C335.356 323.404 352.918 379.765 353.989 424.655C338.764 423.124 322.109 422.259 303.892 422.259C280.196 422.259 257.368 425.162 235.442 430.268Z" fill="white" stroke="#141414" stroke-width="0.25"/>
</svg>
